<svg width="14" height="15" viewBox="0 0 14 15" fill="none" xmlns="http://www.w3.org/2000/svg">
<g id="Icons" clipPath="url(#clip0_542_10252)">
<path id="Vector" opacity="0.2" d="M11.375 5.3125H2.625C2.50897 5.3125 2.39769 5.35859 2.31564 5.44064C2.23359 5.52269 2.1875 5.63397 2.1875 5.75V11.875C2.1875 11.991 2.23359 12.1023 2.31564 12.1844C2.39769 12.2664 2.50897 12.3125 2.625 12.3125H11.375C11.491 12.3125 11.6023 12.2664 11.6844 12.1844C11.7664 12.1023 11.8125 11.991 11.8125 11.875V5.75C11.8125 5.63397 11.7664 5.52269 11.6844 5.44064C11.6023 5.35859 11.491 5.3125 11.375 5.3125ZM7 9.25C6.78368 9.25 6.57221 9.18585 6.39234 9.06567C6.21248 8.94549 6.07229 8.77467 5.98951 8.57481C5.90672 8.37495 5.88506 8.15504 5.92727 7.94287C5.96947 7.7307 6.07364 7.53582 6.2266 7.38285C6.37957 7.22989 6.57445 7.12572 6.78662 7.08352C6.99879 7.04131 7.2187 7.06297 7.41856 7.14576C7.61842 7.22854 7.78924 7.36873 7.90942 7.54859C8.0296 7.72846 8.09375 7.93993 8.09375 8.15625C8.09375 8.44633 7.97852 8.72453 7.7734 8.92965C7.56828 9.13477 7.29008 9.25 7 9.25Z" fill="white"/>
<path id="Vector_2" d="M11.375 5.3125H2.625C2.38338 5.3125 2.1875 5.50838 2.1875 5.75V11.875C2.1875 12.1166 2.38338 12.3125 2.625 12.3125H11.375C11.6166 12.3125 11.8125 12.1166 11.8125 11.875V5.75C11.8125 5.50838 11.6166 5.3125 11.375 5.3125Z" stroke="white" strokeLinecap="round" strokeLinejoin="round"/>
<path id="Vector_3" d="M4.8125 5.3125V3.5625C4.8125 2.98234 5.04297 2.42594 5.4532 2.0157C5.86344 1.60547 6.41984 1.375 7 1.375C7.58016 1.375 8.13656 1.60547 8.5468 2.0157C8.95703 2.42594 9.1875 2.98234 9.1875 3.5625V5.3125" stroke="white" strokeLinecap="round" strokeLinejoin="round"/>
<path id="Vector_4" d="M7 9.25C7.60406 9.25 8.09375 8.76031 8.09375 8.15625C8.09375 7.55219 7.60406 7.0625 7 7.0625C6.39594 7.0625 5.90625 7.55219 5.90625 8.15625C5.90625 8.76031 6.39594 9.25 7 9.25Z" stroke="white" strokeWidth="2" strokeLinecap="round" strokeLinejoin="round"/>
<path id="Vector_5" d="M7 9.25V10.5625" stroke="white" strokeWidth="2" strokeLinecap="round" strokeLinejoin="round"/>
</g>
<defs>
<clipPath id="clip0_542_10252">
<rect width="14" height="14" fill="white" transform="translate(0 0.5)"/>
</clipPath>
</defs>
</svg>
