<svg width="24" height="25" viewBox="0 0 24 25" fill="none" xmlns="http://www.w3.org/2000/svg">
<g id="Icons" clipPath="url(#clip0_542_4869)">
<path id="Vector" opacity="0.2" d="M19.5 8.75H4.5C4.30109 8.75 4.11032 8.82902 3.96967 8.96967C3.82902 9.11032 3.75 9.30109 3.75 9.5V20C3.75 20.1989 3.82902 20.3897 3.96967 20.5303C4.11032 20.671 4.30109 20.75 4.5 20.75H19.5C19.6989 20.75 19.8897 20.671 20.0303 20.5303C20.171 20.3897 20.25 20.1989 20.25 20V9.5C20.25 9.30109 20.171 9.11032 20.0303 8.96967C19.8897 8.82902 19.6989 8.75 19.5 8.75ZM12 15.5C11.6292 15.5 11.2666 15.39 10.9583 15.184C10.65 14.978 10.4096 14.6851 10.2677 14.3425C10.1258 13.9999 10.0887 13.6229 10.161 13.2592C10.2334 12.8955 10.412 12.5614 10.6742 12.2992C10.9364 12.037 11.2705 11.8584 11.6342 11.786C11.9979 11.7137 12.3749 11.7508 12.7175 11.8927C13.0601 12.0346 13.353 12.275 13.559 12.5833C13.765 12.8916 13.875 13.2542 13.875 13.625C13.875 14.1223 13.6775 14.5992 13.3258 14.9508C12.9742 15.3025 12.4973 15.5 12 15.5Z" fill="#A8A8A8"/>
<path id="Vector_2" d="M19.5 8.75H4.5C4.08579 8.75 3.75 9.08579 3.75 9.5V20C3.75 20.4142 4.08579 20.75 4.5 20.75H19.5C19.9142 20.75 20.25 20.4142 20.25 20V9.5C20.25 9.08579 19.9142 8.75 19.5 8.75Z" stroke="#A8A8A8" strokeWidth="1.5" strokeLinecap="round" strokeLinejoin="round"/>
<path id="Vector_3" d="M8.25 8.75V5.75C8.25 4.75544 8.64509 3.80161 9.34835 3.09835C10.0516 2.39509 11.0054 2 12 2C13.8141 2 15.4022 3.28812 15.75 5" stroke="#A8A8A8" strokeWidth="1.5" strokeLinecap="round" strokeLinejoin="round"/>
<path id="Vector_4" d="M12 15.5C13.0355 15.5 13.875 14.6605 13.875 13.625C13.875 12.5895 13.0355 11.75 12 11.75C10.9645 11.75 10.125 12.5895 10.125 13.625C10.125 14.6605 10.9645 15.5 12 15.5Z" stroke="#A8A8A8" strokeWidth="2" strokeLinecap="round" strokeLinejoin="round"/>
<path id="Vector_5" d="M12 15.5V17.75" stroke="#A8A8A8" strokeWidth="1.5" strokeLinecap="round" strokeLinejoin="round"/>
</g>
<defs>
<clipPath id="clip0_542_4869">
<rect width="24" height="24" fill="white" transform="translate(0 0.5)"/>
</clipPath>
</defs>
</svg>
