<svg width="32" height="32" viewBox="0 0 32 32" fill="none" xmlns="http://www.w3.org/2000/svg">
<g id="Icons" clipPath="url(#clip0_595_12207)">
<path id="Vector" opacity="0.2" d="M6 26H2C1.73478 26 1.48043 25.8946 1.29289 25.7071C1.10536 25.5196 1 25.2652 1 25V20C1 19.7348 1.10536 19.4804 1.29289 19.2929C1.48043 19.1054 1.73478 19 2 19H6V26Z" fill="white"/>
<path id="Vector_2" opacity="0.2" d="M25.5 7.00078C24.9811 7.0011 24.4687 7.11681 24 7.33953C23.966 6.58886 23.6913 5.86908 23.2165 5.28664C22.7417 4.70419 22.0921 4.29002 21.3637 4.10537C20.6353 3.92071 19.8668 3.97539 19.1719 4.26131C18.477 4.54723 17.8925 5.04921 17.505 5.693C17.1174 6.3368 16.9474 7.08822 17.02 7.83615C17.0926 8.58407 17.4039 9.28877 17.908 9.84603C18.4121 10.4033 19.0822 10.7835 19.8191 10.9305C20.5561 11.0774 21.3207 10.9833 22 10.662C22.0316 11.3465 22.2634 12.0067 22.6666 12.5606C23.0699 13.1146 23.6269 13.538 24.2686 13.7784C24.9103 14.0187 25.6084 14.0655 26.2763 13.9127C26.9443 13.76 27.5528 13.4146 28.0263 12.9193C28.4997 12.424 28.8174 11.8006 28.9399 11.1264C29.0624 10.4523 28.9843 9.75698 28.7153 9.12678C28.4463 8.49658 27.9983 7.95919 27.4267 7.58127C26.8551 7.20335 26.1852 7.0015 25.5 7.00078Z" fill="white"/>
<path id="Vector_3" d="M25.5 14C27.433 14 29 12.433 29 10.5C29 8.567 27.433 7 25.5 7C23.567 7 22 8.567 22 10.5C22 12.433 23.567 14 25.5 14Z" stroke="white" strokeWidth="2" strokeLinecap="round" strokeLinejoin="round"/>
<path id="Vector_4" d="M6 26H2C1.73478 26 1.48043 25.8946 1.29289 25.7071C1.10536 25.5196 1 25.2652 1 25V20C1 19.7348 1.10536 19.4804 1.29289 19.2929C1.48043 19.1054 1.73478 19 2 19H6" stroke="white" strokeWidth="2" strokeLinecap="round" strokeLinejoin="round"/>
<path id="Vector_5" d="M14 20H18L26.375 18.0738C26.6829 17.9894 27.0061 17.9771 27.3195 18.038C27.6329 18.0989 27.9281 18.2312 28.182 18.4247C28.436 18.6181 28.6419 18.8676 28.7838 19.1536C28.9256 19.4396 28.9996 19.7545 29 20.0738C29.0002 20.4592 28.8929 20.8371 28.6902 21.165C28.4875 21.4929 28.1974 21.7578 27.8525 21.93L23 24L15 26H6V19L9.125 15.875C9.40432 15.5967 9.73577 15.3761 10.1004 15.226C10.465 15.0758 10.8557 14.999 11.25 15H17.5C18.163 15 18.7989 15.2634 19.2678 15.7322C19.7366 16.2011 20 16.837 20 17.5C20 18.1631 19.7366 18.7989 19.2678 19.2678C18.7989 19.7366 18.163 20 17.5 20H14Z" stroke="white" strokeWidth="2" strokeLinecap="round" strokeLinejoin="round"/>
<path id="Vector_6" d="M22 10.662C21.3207 10.9833 20.5561 11.0774 19.8191 10.9305C19.0822 10.7835 18.4121 10.4033 17.908 9.84603C17.4039 9.28877 17.0926 8.58407 17.02 7.83615C16.9474 7.08822 17.1174 6.3368 17.505 5.693C17.8925 5.04921 18.477 4.54723 19.1719 4.26131C19.8668 3.97539 20.6353 3.92071 21.3637 4.10537C22.0921 4.29002 22.7417 4.70419 23.2165 5.28664C23.6913 5.86908 23.966 6.58886 24 7.33953" stroke="white" strokeWidth="2" strokeLinecap="round" strokeLinejoin="round"/>
</g>
<defs>
<clipPath id="clip0_595_12207">
<rect width="32" height="32" fill="white"/>
</clipPath>
</defs>
</svg>
